<svg width="1920" height="631" viewBox="0 0 1920 631" fill="none" xmlns="http://www.w3.org/2000/svg">
<g opacity="0.1">
<path d="M-15.5227 503.666L-18.4624 501.9C57.7017 423.493 132.982 368.98 211.728 335.273C282.249 305.292 354.164 292.3 431.668 296.415C575.598 303.751 711.999 366.819 857.101 433.38C1046.47 520.708 1242.77 610.97 1457.56 567.232C1647.46 528.555 1631.4 430.041 1610.54 305.555C1595.23 212.855 1577.58 108.072 1644.97 7.18374C1722.31 -108.696 1899.43 -197.525 2186.59 -263.872L2187.49 -261.263C1901.31 -195.163 1724.72 -106.632 1647.45 8.89704C1580.72 108.786 1597.91 213.517 1613.36 305.516C1623.64 366.13 1633.15 423.434 1615.85 469.109C1596.62 519.936 1546.35 551.852 1457.93 570.139C1241.7 614.072 1045.01 523.408 855.181 436.028C710.538 369.519 574.137 306.45 431.583 299.271C269.488 291.312 127.493 356.182 -15.5227 503.666Z" fill="#DCCA87"/>
<path d="M-35.6411 510.7L-38.19 509.337C250.934 232.268 510.346 330.747 784.933 435.598C990.563 514.023 1203.26 594.679 1444.65 527.449C1638.45 473.457 1631.74 379.94 1623.69 271.587C1618.26 193.256 1611.51 104.749 1682.61 18.6057C1764.1 -79.9721 1934.72 -159.508 2204.23 -224.272L2205.2 -222.014C1936.68 -157.496 1766.58 -78.2588 1685.69 19.6701C1615.25 104.814 1621.54 193.269 1627.04 271.25C1634.89 380.654 1641.92 474.924 1445.62 529.707C1202.72 597.483 989.628 516.424 783.54 437.947C510.261 333.602 251.767 235.228 -35.6411 510.7Z" fill="#DCCA87"/>
<path d="M-55.6931 517.384L-57.7832 516.073C61.5266 411.032 183.01 362.464 324.629 362.375C450.7 362.675 575.92 401.2 708.21 441.957C930.697 510.829 1160.32 581.582 1432.4 486.667C1629.06 417.956 1634.11 331.5 1639.19 240.034C1646.58 107.644 1655.08 -42.528 2222.46 -185.321L2223.5 -183.413C1658.09 -41.1132 1649.73 108.358 1642.01 239.995C1636.79 332.162 1632.13 419.021 1433.89 488.627C1311.66 531.38 1186.35 544.059 1050.75 527.638C930.748 512.983 817.507 477.963 707.802 444.059C448.984 364.272 204.372 288.598 -55.6931 517.384Z" fill="#DCCA87"/>
<path d="M-75.2862 524.12L-76.9175 522.861C29.9869 438.262 140.068 397.715 270.285 395.978C386.466 394.084 503.683 423.108 627.646 453.611C856.319 509.932 1115.44 573.638 1420.54 446.288C1619 363.455 1636.95 290.277 1655.78 212.544C1681.76 105.178 1708.95 -5.99058 2240.7 -146.37L2241.73 -144.462C1710.58 -4.73154 1683.92 106.139 1658.07 212.803C1639.17 290.887 1621.09 364.766 1421.64 447.845C1284.88 505.07 1145.73 528.717 996.748 520.81C865.41 513.826 744.132 483.984 626.847 455.311C374.86 393.487 157.385 339.866 -75.2862 524.12Z" fill="#DCCA87"/>
<path d="M-95.4061 531.154L-97.0374 529.895C-2.72514 464.285 95.8177 432.46 213.579 429.671C318.68 426.882 426.704 447.702 541.015 469.951C786.936 517.121 1065.35 570.833 1408.22 405.856C1605.25 311.044 1640.26 246.601 1671.02 189.557C1716.46 105.165 1755.39 32.5715 2258.34 -106.77L2258.98 -105.264C1757.02 33.8305 1718.09 106.424 1673.24 190.167C1642.42 247.562 1607.34 312.355 1409.78 407.465C1065.93 572.689 787.055 518.925 540.675 471.703C309.3 426.895 109.957 388.577 -95.4061 531.154Z" fill="#DCCA87"/>
<path d="M-114.998 537.892L-116.171 536.685C61.5777 432.527 241.125 459.293 448.982 489.979C712.406 529.102 1010.89 573.625 1396.89 365.18C1579.19 266.552 1635.96 213.168 1677.22 174.503C1746.01 109.944 1780.41 77.6643 2276.57 -67.8161L2277.21 -66.3105C1781.58 78.8714 1747.18 111.151 1678.39 175.71C1637.07 214.725 1579.83 268.057 1397.53 366.686C1225.17 459.993 1054.47 510.87 875.98 522.186C719.797 532.087 581.662 511.799 448.183 491.679C241.311 460.746 62.2234 434.032 -114.998 537.892Z" fill="#DCCA87"/>
<path d="M-135.12 544.926L-135.833 543.771C13.5361 474.722 168.936 493.025 348.653 514.08C616.325 545.805 949.149 584.903 1384.17 324.346C1432.98 295.13 1473.35 270.69 1508.39 249.586C1698.02 134.954 1698.02 134.954 1828.58 102.455C1907.43 82.7274 2039.43 50.0339 2293.88 -28.9688L2294.6 -27.8136C2040.07 51.5395 1908.53 84.285 1829.68 104.013C1699.12 136.512 1699.12 136.512 1510.02 250.845C1474.92 272.3 1434.61 296.389 1385.8 325.605C1192.17 441.574 1002.41 508.559 806.851 530.479C636.241 549.491 483.594 531.5 348.84 515.533C169.123 494.479 13.723 476.176 -135.12 544.926Z" fill="#DCCA87"/>
<path d="M-154.711 551.661L-155.034 550.908C-35.063 512.555 92.7576 525.588 240.307 540.854C525.312 570.243 880.26 606.473 1372.71 284.368C1497.37 202.495 1580.4 156.38 1641.94 133.979C1700.47 112.667 1739.82 112.823 1789.41 113.421C1876.91 114.37 1996.28 115.345 2312.51 10.3838L2312.83 11.1366C1996.15 116.046 1876.31 115.019 1789.21 114.472C1739.62 113.875 1700.72 113.77 1642.2 135.082C1581.18 157.185 1498.08 203.651 1373.49 285.173C880.515 607.576 525.567 571.346 240.103 541.905C92.5537 526.639 -35.199 513.256 -154.711 551.661Z" fill="#DCCA87"/>
<path d="M-174.764 558.347L-175.086 557.594C-86.111 543.668 9.84789 554.17 120.489 566.333C406.462 597.98 798.03 641.22 1360.06 243.186C1618.77 60.0884 1698.67 78.4423 1808.56 104.13C1907.26 127.118 2030.71 155.415 2329.36 49.1815L2329.68 49.9344C2030.5 156.466 1907.12 127.819 1807.9 105.129C1697.94 79.7922 1618.56 61.1397 1360.39 243.939C1110.91 420.56 874.704 526.34 639.402 567.04C436.999 602.511 269.007 583.857 120.744 567.436C10.1028 555.273 -85.7882 544.421 -174.764 558.347Z" fill="#DCCA87"/>
<path d="M134.118 607.269C82.2724 601.401 33.5877 593.743 -11.4944 586.85C-77.019 576.57 -138.482 567.107 -194.355 565.081L-194.287 564.731C-138.346 566.406 -76.951 576.219 -11.4264 586.5C117.855 606.503 267.121 629.842 447.705 610.167C377.796 617.655 307.072 619.679 233.764 615.681C199.404 613.941 166.234 610.903 134.118 607.269ZM762.603 536.214C933.503 474.616 1127.05 371.172 1348.6 203.208C1468.53 111.847 1562.91 65.2262 1644.84 56.2324C1719.08 48.1602 1776.91 71.5368 1838.2 96.3803C1949.93 141.615 2076.37 193.171 2347.99 88.5341L2348.38 88.9365C2227.23 135.752 2124.05 155.233 2032.92 148.859C1953.32 143.432 1894.65 119.601 1838.13 96.7307C1776.84 71.8873 1719.01 48.5106 1645.23 56.6348C1563.3 65.6285 1469.38 112.301 1349.05 203.26C1270.39 263.12 1191.97 316.919 1115.89 363.462C1044.55 407.319 972.859 445.763 903.306 478.003C856.388 499.912 809.028 519.264 762.603 536.214Z" fill="#DCCA87"/>
<path d="M25.4627 630.786C-42.9337 618.39 -103.496 601.866 -158.689 586.667C-178.265 581.228 -196.532 576.296 -213.95 571.817L-213.882 571.467C-196.005 575.997 -177.738 580.929 -158.621 586.316C-103.037 601.918 -42.4749 618.442 25.4627 630.786ZM1050.7 370.769C1140.7 312.907 1235.62 244.143 1336.8 162.478C1369.58 136.104 1401.29 112.832 1431.2 94.0127C1459.59 75.738 1487.84 60.6692 1514.02 48.9491C1562.78 27.248 1608.44 16.6574 1652.52 16.632C1735.1 16.3085 1801.63 52.8465 1872.01 91.2536C1937.3 126.935 2007.29 164.94 2097.22 175.117C2170.63 183.424 2257.48 173.198 2366.22 127.485L2366.15 127.836C2336.55 140.244 2307.88 150.251 2280.54 158.259C2254.25 165.67 2228.83 171.03 2203.82 174.287C2158.58 180.27 2116.01 179.75 2073.36 172.417C1995.33 158.93 1932.13 124.56 1871.55 91.2016C1810.52 57.7918 1752.42 26.1472 1684.51 18.4625C1673.96 17.2682 1663.27 16.7749 1652.06 16.5801C1559.17 16.8125 1459.22 63.1609 1336.87 162.128C1244 237.213 1152.17 304.536 1063.16 362.15C1058.81 365.239 1054.99 368.03 1050.7 370.769Z" fill="#DCCA87"/>
</g>
</svg>
